<svg width="230" height="173" viewBox="0 0 230 173" fill="none" xmlns="http://www.w3.org/2000/svg">
<path d="M226.459 166.067C223.593 170.083 217.815 171.882 209.582 171.51C201.376 171.138 190.88 168.611 178.798 164.166C154.641 155.279 124.255 138.77 93.3765 116.736C62.4979 94.7024 37.0029 71.3377 20.7428 51.3846C12.6104 41.4052 6.80681 32.3019 3.78633 24.6624C0.756248 16.9986 0.578915 10.9496 3.44466 6.93344C6.31042 2.91729 12.0882 1.11762 20.3208 1.49042C28.5274 1.86203 39.0233 4.38937 51.1051 8.83396C75.2618 17.7206 105.648 34.2304 136.527 56.264C167.405 78.2976 192.9 101.662 209.16 121.615C217.293 131.595 223.096 140.698 226.117 148.338C229.147 156.001 229.324 162.05 226.459 166.067Z" stroke="black"/>
</svg>
